<svg width="466" height="146" viewBox="0 0 466 146" fill="none" xmlns="http://www.w3.org/2000/svg">
<g clip-path="url(#clip0_122_534)">
<path d="M305.762 22.6249C305.923 22.9563 306.134 23.3195 306.394 23.7164C306.653 24.1136 306.978 24.4605 307.367 24.7583C307.757 25.0557 308.177 25.2046 308.631 25.2046H308.748C309.558 25.2046 310.312 24.7247 310.613 23.9582C310.67 23.8136 310.723 23.6669 310.771 23.5175C310.966 22.9223 311.127 22.4605 311.258 22.1283C311.322 21.9966 311.501 21.8309 311.793 21.6325C312.084 21.4337 312.391 21.2025 312.717 20.9379C313.04 20.6745 313.332 20.3922 313.592 20.0939L313.6 20.0853C313.991 19.6325 313.822 18.9233 313.27 18.7051C312.786 18.514 312.261 18.2988 311.695 18.06C310.755 17.6631 310.026 17.4643 309.507 17.4643C309.118 17.4643 308.663 17.5977 308.145 17.8611C307.625 18.1267 307.156 18.4563 306.735 18.8536C306.313 19.2508 305.972 19.7315 305.714 20.2927C305.453 20.8557 305.388 21.4337 305.519 22.0289C305.519 22.096 305.599 22.2948 305.762 22.6249Z" fill="white"/>
<path d="M463.522 18.06C462.58 17.6631 461.85 17.4643 461.33 17.4643C460.942 17.4643 460.49 17.5977 459.97 17.8611C459.45 18.1267 458.982 18.4563 458.559 18.8536C458.137 19.2508 457.795 19.7315 457.537 20.2927C457.279 20.8557 457.212 21.4337 457.343 22.0289C457.343 22.096 457.423 22.2948 457.588 22.6249C457.748 22.9563 457.959 23.3195 458.221 23.7164C458.479 24.1127 458.804 24.4605 459.193 24.7583C459.581 25.0557 460.004 25.2046 460.456 25.2046H461.816C462.141 24.6757 462.403 24.1127 462.597 23.5175C462.792 22.9223 462.952 22.4605 463.083 22.1283C463.146 21.9966 463.328 21.8309 463.619 21.6325C463.911 21.4337 464.215 21.2025 464.54 20.9379C464.865 20.6745 465.157 20.3922 465.419 20.0939C465.676 19.7969 465.871 19.4492 466.002 19.0524C465.288 18.7886 464.46 18.4563 463.522 18.06Z" fill="white"/>
<path d="M316.56 60.632C315.036 61.7578 313.755 62.5841 312.718 63.1126C312.198 63.3777 311.566 63.7083 310.821 64.1055C310.076 64.5023 309.28 64.9335 308.439 65.3953C307.595 65.8588 306.769 66.3223 305.959 66.7846C305.147 67.2481 304.417 67.6449 303.77 67.9754C303.055 68.3727 302.165 68.9679 301.095 69.7615C300.025 70.5551 298.938 71.2841 297.837 71.9447C296.734 72.6071 295.664 73.0861 294.627 73.3831C294.18 73.5113 293.769 73.5574 293.395 73.5199C292.589 73.4394 292.067 72.6054 292.307 71.8182C292.595 70.8753 293.174 69.8097 294.043 68.6201C295.275 66.9335 296.864 65.1642 298.809 63.3115C300.755 61.4596 302.926 59.6395 305.327 57.8535C307.724 56.067 310.124 54.4643 312.524 53.0401C314.922 51.6186 317.207 50.4777 319.381 49.6165C321.553 48.7575 323.352 48.3267 324.779 48.3267C325.546 48.2626 326.249 48.2286 326.89 48.2273C326.91 48.2286 326.929 48.2299 326.948 48.2311C327.456 48.2979 327.933 48.3956 328.379 48.5255C328.751 48.6348 328.971 48.8556 329.038 49.187C329.064 49.317 329.028 49.4521 328.939 49.549C328.049 50.5134 326.939 51.6453 325.606 52.9416C324.211 54.2977 322.737 55.6375 321.181 56.9604C319.624 58.2843 318.083 59.5078 316.56 60.632ZM230.798 60.7744C229.714 60.2433 229.218 59.4183 229.312 58.2998C229.409 57.1433 229.862 55.8535 230.673 54.4294C231.483 53.0079 232.57 51.5368 233.932 50.0142C235.294 48.4924 236.687 47.1526 238.115 45.9945C239.54 44.8381 240.918 43.9106 242.248 43.216C243.577 42.5214 244.598 42.2735 245.312 42.4719C246.09 42.4069 246.543 42.5554 246.674 42.9186C246.803 43.2831 246.803 43.7294 246.674 44.2584C246.543 44.7882 246.333 45.3171 246.042 45.8456C245.75 46.3762 245.507 46.7726 245.312 47.0369C244.987 47.5671 244.469 48.3611 243.756 49.4181C243.042 50.4777 242.248 51.5691 241.373 52.6933C240.497 53.8187 239.637 54.8929 238.795 55.9181C237.952 56.9449 237.271 57.689 236.752 58.1508C232.83 61.4849 230.798 60.7744 230.798 60.7744ZM219.488 83.6548C218.547 84.7789 217.348 86.0855 215.889 87.5742C214.43 89.0624 212.908 90.5834 211.318 92.1387C209.729 93.6924 208.546 95.0666 207.768 96.2574C204.266 101.482 200.246 106.693 195.706 111.887C191.168 117.08 186.5 121.892 181.7 126.325C180.338 127.581 179.156 128.723 178.15 129.749C177.145 130.774 176.204 131.733 175.329 132.627C174.454 133.52 173.563 134.379 172.654 135.207C171.774 136.009 170.74 136.796 169.553 137.568C169.484 137.613 169.398 137.635 169.317 137.624C168.604 137.532 168.079 137.189 167.742 136.595C167.386 135.966 167.208 135.222 167.208 134.364C167.208 133.503 167.338 132.659 167.596 131.833C167.854 131.012 168.143 130.34 168.463 129.813C168.469 129.803 168.475 129.794 168.482 129.784C169.905 127.805 171.215 125.924 172.411 124.142C173.612 122.356 174.86 120.602 176.156 118.883C177.454 117.162 178.848 115.425 180.338 113.673C181.831 111.919 183.548 110.084 185.493 108.165C188.8 104.923 192.205 101.748 195.706 98.6387C199.662 95.1983 203.699 92.0225 207.816 89.1124C211.841 86.2667 215.878 83.771 219.933 81.6217C220.151 81.5055 220.432 81.6518 220.438 81.9027C220.447 82.3004 220.13 82.884 219.488 83.6548ZM439.833 63.0136C439.508 62.9482 438.811 63.2465 437.742 63.9067C437.261 64.2036 436.716 64.5849 436.112 65.042C436.112 65.042 423.517 73.0366 417.402 73.433H417.074C416.749 73.433 416.311 73.3831 415.761 73.2841C415.359 73.2122 414.915 73.0263 414.427 72.7259C414.214 72.5933 414.042 72.2809 414.08 72.0287C414.622 68.4178 423.28 62.2467 423.28 62.2467C423.293 62.2295 423.31 62.2136 423.322 62.1964C423.457 62.0784 424.015 61.6227 424.999 60.8304C426.072 59.9713 427.204 58.9621 428.403 57.804C429.603 56.6467 430.676 55.4563 431.614 54.2314C432.556 53.0079 432.927 52.0326 432.733 51.304C432.67 50.9739 432.458 50.6434 432.104 50.3111C431.745 49.9811 431.339 49.7004 430.887 49.4676C430.431 49.2365 429.975 49.0385 429.523 48.8724C429.071 48.7084 428.712 48.6249 428.454 48.6249C427.352 48.6249 426.279 49.0712 425.244 49.9643L419.7 54.8765L408.312 63.1531C388.547 74.6385 387.894 70.2534 387.894 70.2534C387.763 69.5226 387.86 68.6589 388.186 67.6634C388.509 66.6679 388.898 65.654 389.353 64.6245L391.687 59.0456C392.335 57.9511 392.935 56.8877 393.487 55.8582C394.037 54.8288 394.508 53.882 394.897 53.0186C395.286 52.1549 395.48 51.4917 395.48 51.0264C395.48 50.4962 395.432 50.1132 395.335 49.8803C395.237 49.6479 395.123 49.4668 394.994 49.3333C394.863 49.1999 394.774 49.0514 394.654 48.9843C393.474 48.3301 389.547 49.2322 389.547 49.2322C388.704 49.3656 388.089 49.4822 387.699 49.5808C387.31 49.6802 386.921 49.8309 386.532 50.0297C386.143 50.2294 385.688 50.5285 385.171 50.927C384.651 51.3251 383.872 51.8898 382.835 52.6205C382.382 52.9519 381.863 53.2837 381.28 53.616C380.696 53.9474 380.128 54.2465 379.578 54.512C379.026 54.7789 378.523 55.0108 378.07 55.2097L378.057 55.2153C377.658 55.3904 377.273 54.942 377.492 54.5594C377.631 54.3158 377.791 54.101 377.973 53.9151C378.362 53.5166 378.734 53.1353 379.091 52.7686C379.447 52.4045 379.772 52.0404 380.064 51.6746C380.356 51.3088 380.501 50.8276 380.501 50.2294C380.501 49.6992 380.29 49.184 379.869 48.6848C379.447 48.1868 378.946 47.7388 378.362 47.3407C377.778 46.9422 377.161 46.6259 376.514 46.3926C375.865 46.1606 375.281 46.044 374.763 46.044C374.243 46.044 373.693 46.1111 373.109 46.2428C372.525 46.3762 371.942 46.5251 371.358 46.6891C370.775 46.8557 370.255 47.0369 369.802 47.2353L365.182 49.5175C358.641 53.3836 332.443 69.3888 326.081 70.9988C320.584 72.3902 319.865 70.7328 320.02 69.4292C320.1 68.7591 320.437 68.1458 320.917 67.6802C322.758 65.8924 324.311 64.4072 325.606 63.2615C327.065 61.9717 328.379 60.7159 329.545 59.4906C330.713 58.2675 331.832 56.895 332.901 55.3723C333.763 54.1479 334.739 52.5796 335.832 50.6688C336.273 49.8976 335.954 48.9047 335.155 48.5389C333.402 47.7354 332.003 47.0863 330.956 46.5901C329.626 45.9622 328.507 45.4983 327.601 45.2009C326.692 44.9035 325.767 44.7219 324.828 44.6547C323.887 44.5898 322.542 44.5558 320.792 44.5558C318.716 44.5558 316.527 44.8036 314.226 45.2999C311.924 45.7965 309.606 46.5406 307.272 47.5327C304.937 48.5255 302.618 49.7654 300.317 51.2545C298.015 52.7428 295.858 54.4466 293.849 56.3648C293.134 57.0938 292.146 58.0691 290.882 59.2926C289.648 60.4873 288.447 61.7815 287.275 63.1638C286.918 63.3102 286.458 63.5555 285.889 63.9067C285.409 64.2036 284.863 64.5849 284.259 65.042H284.257C284.257 65.042 271.662 73.0366 265.548 73.433H265.219C264.895 73.433 264.457 73.3831 263.907 73.2841C263.505 73.2122 263.061 73.0263 262.573 72.7259C262.359 72.5933 262.189 72.2809 262.226 72.0287C262.768 68.4178 271.425 62.2467 271.425 62.2467C271.44 62.2295 271.454 62.2136 271.469 62.1964C271.602 62.0784 272.162 61.6227 273.147 60.8304C274.217 59.9713 275.351 58.9621 276.551 57.804C277.75 56.6467 278.82 55.4563 279.761 54.2314C280.701 53.0079 281.074 52.0326 280.88 51.304C280.814 50.9739 280.603 50.6434 280.248 50.3111C279.89 49.9811 279.484 49.7004 279.031 49.4676C278.577 49.2365 278.122 49.0385 277.67 48.8724C277.215 48.7084 276.858 48.6249 276.6 48.6249C275.496 48.6249 274.427 49.0712 273.39 49.9643L272.244 50.9795L272.244 50.9799L267.846 54.8765L265.967 56.6837L261.687 60.5734C260.73 61.404 259.816 62.2342 258.937 63.0644C258.936 63.0644 258.935 63.0631 258.934 63.0636C258.74 63.0636 253.579 66.0082 252.801 66.4373C252.023 66.8685 251.1 67.3643 250.03 67.9259C248.96 68.4884 247.824 69.0673 246.625 69.6625C245.425 70.2581 244.34 70.7539 243.367 71.1511C239.103 72.7216 236.948 71.7464 236.948 71.7464C236.169 71.6809 235.926 71.334 236.217 70.7044C236.504 70.0881 236.961 69.424 237.592 68.7109L239.768 65.941C240.804 64.3207 241.988 62.4847 243.318 60.4335C244.646 58.3837 246.009 56.4147 247.403 54.5288C248.324 53.2829 249.168 52.2904 249.933 51.5498C250.869 50.6451 251.7 49.6346 252.452 48.5668C252.981 47.8163 253.519 47.0743 254.066 46.3422C255.102 44.953 256.044 43.5638 256.887 42.1745C257.729 40.7848 258.382 39.4149 259.026 38.1557C260.527 35.2257 259.513 34.0366 259.513 34.0366C259.382 33.8386 259.27 33.6574 259.172 33.4913C259.075 33.3273 258.913 33.1935 258.686 33.0945C258.473 33.0011 258.189 33.039 257.834 33.2077C257.794 33.2395 257.752 33.2722 257.712 33.3036C256.95 34.2104 256.205 35.1159 255.476 36.0219C254.73 36.9485 254.049 37.7757 253.434 38.5025C252.817 39.2312 252.25 39.8423 251.731 40.3381C251.212 40.8347 250.823 41.0826 250.565 41.0826C250.11 41.0826 249.704 40.9837 249.348 40.7848C248.992 40.5864 248.602 40.373 248.181 40.1401C247.759 39.909 247.289 39.7106 246.771 39.5449C246.251 39.3801 245.571 39.3306 244.728 39.3956C243.561 39.4623 242.183 39.7429 240.595 40.2395C239.005 40.7353 237.368 41.43 235.682 42.323C233.995 43.216 232.342 44.2752 230.722 45.4983C229.1 46.724 227.658 48.0784 226.394 49.567C225.129 51.0557 224.124 52.661 223.378 54.3799C222.632 56.1014 222.324 57.9202 222.454 59.8383C222.519 60.9633 222.875 61.8727 223.525 62.5673C224.172 63.2615 224.901 63.8072 225.713 64.204C226.523 64.6013 227.366 64.8664 228.242 64.9981C228.242 64.9981 230.801 65.91 235.242 61.4372C235.401 61.2766 235.685 61.3873 235.76 61.6016C235.775 61.642 235.789 61.6851 235.802 61.7307C236.004 62.43 235.789 63.1828 235.299 63.7134C234.934 64.1076 234.462 64.6516 233.883 65.3458C233.137 66.2389 232.342 67.1659 231.5 68.1243C230.657 69.0836 229.878 69.9771 229.166 70.8034C229.159 70.812 229.152 70.8198 229.144 70.8284C228.133 71.727 227.134 72.6131 226.123 73.5122L219.356 78.0875C219.347 78.0948 219.337 78.1017 219.328 78.109C218.555 78.7649 217.814 79.3562 217.105 79.8834C216.391 80.4124 215.807 80.8087 215.354 81.0738C212.696 82.6619 209.924 84.4144 207.038 86.3339C204.153 88.2516 201.25 90.2688 198.332 92.3871C195.414 94.5037 192.53 96.7192 189.676 99.0359C186.823 101.351 184.131 103.733 181.603 106.181C178.685 108.959 175.589 112.001 172.314 115.31C169.04 118.618 166.122 121.909 163.559 125.185C160.999 128.459 159.086 131.6 157.821 134.611C156.569 137.591 156.509 140.102 157.641 142.143C157.671 142.178 157.7 142.213 157.729 142.248C158.81 143.157 159.747 144.035 160.545 144.882C161.356 145.741 162.247 146.105 163.219 145.974C164.517 145.775 165.879 145.279 167.304 144.485C168.732 143.691 170.11 142.749 171.439 141.657C172.769 140.566 174.049 139.44 175.281 138.283C176.513 137.125 177.583 136.116 178.489 135.256C184.197 129.831 189.401 124.423 194.101 119.032C198.804 113.638 203.293 108.264 207.573 102.905C210.297 99.4654 213.004 96.2574 215.694 93.2801C218.382 90.3054 221.089 87.2316 223.81 84.0585C223.814 84.0533 223.819 84.0486 223.824 84.0438C223.824 84.0438 227.908 79.6708 236.461 76.2115C237.593 75.7536 238.844 75.2535 240.303 74.9216C241.762 74.5915 243.318 74.1771 244.972 73.6813C246.625 73.1851 248.343 72.5245 250.126 71.6964L253.655 69.9706C253.282 71.1025 253.212 72.3222 253.451 73.6318C253.58 74.3604 253.903 74.9716 254.423 75.4674C254.942 75.9636 255.525 76.3604 256.174 76.6586C256.822 76.9556 257.487 77.1699 258.168 77.3033C258.849 77.435 259.447 77.5022 259.967 77.5022C260.615 77.5022 261.393 77.3855 262.302 77.1544C263.209 76.9233 264.15 76.6087 265.122 76.2115C265.122 76.2115 277.95 70.3459 284.921 66.5053C284.659 66.862 284.372 67.2171 284.171 67.5786C283.359 69.0341 283.019 70.3244 283.15 71.4485C283.408 73.5001 284.283 74.9716 285.775 75.8646C287.267 76.7576 288.92 77.2039 290.737 77.2039C291.773 77.2039 292.973 76.9556 294.335 76.4598C295.697 75.9636 297.09 75.3185 298.518 74.5248C299.943 73.7308 301.387 72.9045 302.846 72.0437C304.305 71.1851 305.65 70.3571 306.882 69.5631C308.113 68.7694 309.183 68.1243 310.092 67.6281C310.999 67.1314 311.648 66.884 312.037 66.884C312.037 66.884 313.375 66.4704 313.594 67.3798C313.674 67.9565 313.717 68.5254 313.723 69.0884C313.735 70.3623 314.017 71.6327 314.69 72.7069C315.22 73.5556 316.016 74.3802 317.192 74.7732C317.963 75.0305 318.732 75.17 319.478 75.269C320.223 75.3688 320.758 75.4183 321.083 75.4183C322.769 75.4183 324.551 75.0383 326.433 74.2769L334.493 70.2633C334.507 70.2564 336.465 69.1994 336.465 69.1994C336.938 68.9597 337.358 68.7561 337.899 68.4712C339.908 67.4138 342.665 65.8261 346.166 63.7083L350.641 61.0287L365.231 52.8921C366.267 52.5611 366.965 52.4944 367.322 52.6933C367.678 52.8921 367.872 53.2067 367.905 53.6358C367.937 54.067 367.984 54.583 367.711 55.0246C366.462 57.0422 363.461 59.4596 363.249 59.63C363.241 59.6369 363.233 59.6442 363.225 59.6511C361.899 60.9711 360.509 62.2902 359.054 63.6088C357.595 64.9335 356.006 66.2389 354.288 67.5291C352.776 68.6636 351.076 69.6827 349.189 70.5873C348.413 70.9596 347.768 71.569 347.341 72.3278L347.334 72.3416C347.139 72.7384 347.009 73.1851 346.945 73.6813C346.907 73.9649 346.955 74.2537 347.087 74.5481C347.283 74.9832 347.651 75.3133 348.077 75.5147C348.939 75.9248 350.739 76.5661 352.878 76.1129C353.259 76.0324 353.866 75.8663 354.677 75.3731C355.487 74.8799 356.476 74.2722 357.644 73.5479C358.811 72.8253 360.108 72.0188 361.535 71.1309C362.96 70.2439 364.452 69.4051 366.009 68.6154C366.851 68.1553 367.937 67.3983 369.267 66.346C370.596 65.2942 371.991 64.2415 373.45 63.1888C374.908 62.1374 376.319 61.2164 377.681 60.4271C379.043 59.6378 380.21 59.2767 381.182 59.3417C381.895 59.4088 382.187 60.066 382.058 61.3158C381.927 62.5656 381.684 63.9777 381.328 65.5563C380.971 67.1349 380.648 68.6636 380.356 70.1428C380.356 70.1428 379.867 73.2824 381.328 74.5821C381.708 74.9195 382.073 75.2242 382.496 75.4213C382.916 75.618 383.305 75.7329 383.663 75.7656C384.018 75.7992 384.295 75.8151 384.489 75.8151C384.748 75.8151 385.332 75.6998 386.24 75.4708C387.148 75.241 388.201 74.9445 389.401 74.5838C390.6 74.2223 391.93 73.779 393.389 73.2518C394.848 72.7263 396.29 72.1677 397.718 71.5755C398.819 71.1171 399.727 70.6885 400.441 70.2947C401.154 69.9009 401.803 69.5403 402.387 69.211C402.97 68.8822 403.553 68.5538 404.137 68.2246C404.721 67.8958 405.402 67.5351 406.18 67.1401C406.894 66.8237 407.572 66.3417 408.256 65.8847C407.446 66.8285 406.595 67.7619 406.034 68.7695C405.223 70.2245 404.979 71.8458 405.305 73.6318C405.434 74.3604 405.758 74.9716 406.277 75.4674C406.796 75.9636 407.379 76.3604 408.028 76.6586C408.676 76.9556 409.341 77.1699 410.022 77.3033C410.703 77.435 411.302 77.5022 411.822 77.5022C412.469 77.5022 413.247 77.3855 414.156 77.1544C415.063 76.9233 416.004 76.6087 416.977 76.2115C416.977 76.2115 436.049 67.49 440.319 64.353C440.712 64.0663 440.809 63.676 440.809 63.4104C440.809 63.1466 440.479 63.0136 439.833 63.0136Z" fill="white"/>
<path d="M334.508 70.2566L334.493 70.2629L334.493 70.2637L334.508 70.2566Z" fill="white"/>
<path d="M183.159 71.3904C183.084 72.1057 183.114 72.8511 183.256 73.6292C183.385 74.3574 183.709 74.9685 184.229 75.4643C184.747 75.9614 185.331 76.3578 185.979 76.6556C186.627 76.953 187.292 77.1669 187.973 77.3007C188.654 77.4324 189.253 77.4996 189.773 77.4996C190.42 77.4996 191.198 77.3825 192.107 77.1518C193.015 76.9207 193.955 76.6061 194.928 76.2089C194.928 76.2089 214.002 67.4869 218.272 64.3504C218.662 64.0637 218.758 63.673 218.758 63.4083C218.758 63.144 218.433 63.0106 217.786 63.0106C217.46 62.9452 216.764 63.2434 215.694 63.9036C215.214 64.2006 214.669 64.5823 214.064 65.039H214.062C214.062 65.039 201.468 73.0336 195.353 73.4304H195.025C194.7 73.4304 194.262 73.3809 193.712 73.2815C193.31 73.2092 192.866 73.0232 192.378 72.7228C192.164 72.5912 191.994 72.2783 192.032 72.0261C192.573 68.4152 201.23 62.2441 201.23 62.2441C201.246 62.2269 201.259 62.211 201.275 62.1938C201.407 62.0754 201.967 61.6201 202.952 60.8277C204.022 59.9687 205.156 58.9591 206.356 57.8014C207.556 56.6441 208.625 55.4537 209.566 54.2288C210.506 53.0053 210.88 52.0301 210.685 51.3014C210.62 50.9709 210.408 50.6408 210.053 50.3086C209.695 49.9785 209.289 49.6979 208.837 49.465C208.382 49.2339 207.928 49.0359 207.475 48.8698C207.02 48.7058 206.663 48.6219 206.405 48.6219C205.302 48.6219 204.232 49.0682 203.195 49.9617L202.049 50.9769L197.651 54.874L195.772 56.6807L191.492 60.5708L188.576 63.2736C186.457 65.3105 181.354 69.8604 180.39 70.506C179.255 71.2673 178.057 72.1113 176.792 73.037C176.048 73.5823 175.361 74.1009 174.718 74.6001C172.543 76.0703 167.901 78.699 166.335 79.586C164.585 80.5785 162.866 81.5709 161.181 82.5629C158.586 84.0176 156.123 85.2923 153.789 86.3838C151.454 87.4752 149.151 88.0213 146.882 88.0213C146.168 88.0213 145.698 87.9379 145.472 87.773C145.244 87.6073 145.105 87.3896 145.034 87.1283C144.743 86.0571 145.43 85.2493 145.43 85.2493L152.815 76.659C153.648 75.7114 154.514 74.8424 155.411 74.0557C155.43 74.0363 155.45 74.017 155.469 73.9976C157.274 71.9607 159.065 70.1686 160.84 68.6205C162.623 67.0669 164.406 65.5946 166.19 64.2045C167.973 62.8152 169.756 61.426 171.539 60.0367C173.322 58.6475 175.153 57.0603 177.035 55.2733C180.211 52.2319 183.469 49.1384 186.81 45.9949C190.149 42.8536 193.473 39.8272 196.78 36.9149C197.752 36.0563 198.643 35.2455 199.454 34.4841C200.265 33.7241 201.075 32.9628 201.886 32.2014C202.697 31.4414 203.523 30.6809 204.367 29.9192C205.209 29.1591 206.149 28.381 207.187 27.587C208.095 26.8596 209.311 26.3961 210.835 26.1977C212.358 25.9993 213.996 25.8999 215.747 25.8999C216.783 25.8999 218.048 25.8676 219.54 25.8009C221.031 25.7355 222.91 25.6692 225.182 25.6021C227.451 25.5375 230.223 25.5203 233.498 25.553C236.772 25.587 240.711 25.7355 245.316 25.9993C246.158 26.1977 246.921 26.1482 247.602 25.8504C248.283 25.553 248.817 25.1898 249.206 24.759C249.595 24.3295 249.79 23.9159 249.79 23.5182C249.79 23.1214 249.498 22.8907 248.915 22.8236C248.331 22.8907 247.407 22.9902 246.143 23.1214C244.878 23.2553 243.451 23.4037 241.862 23.5677C241.351 23.6215 240.791 23.6495 240.266 23.6955C240.288 23.634 240.328 23.5811 240.348 23.5182C240.535 22.9454 240.692 22.4961 240.819 22.1673C240.83 22.1423 240.84 22.1217 240.852 22.0967C240.928 21.9706 241.101 21.8157 241.369 21.6332C241.661 21.4343 241.968 21.2032 242.293 20.9386C242.617 20.6752 242.909 20.3928 243.168 20.0946C243.245 20.0064 243.316 19.9138 243.381 19.817C243.628 19.4508 243.456 18.9446 243.049 18.7858C242.51 18.5754 241.917 18.3331 241.272 18.0607C240.331 17.6638 239.601 17.465 239.084 17.465C238.694 17.465 238.24 17.5984 237.722 17.8618C237.202 18.1274 236.732 18.457 236.311 18.8543C235.889 19.2515 235.548 19.7322 235.29 20.2934C235.03 20.8564 234.965 21.4343 235.095 22.0296C235.095 22.0967 235.176 22.2955 235.339 22.6256C235.5 22.957 235.711 23.3202 235.971 23.717C236.037 23.8199 236.147 23.8905 236.222 23.986C234.76 24.0601 233.331 24.1143 231.991 24.1143C230.369 24.1143 228.781 24.0984 227.224 24.0648C225.668 24.0317 224.225 23.9822 222.896 23.9159C221.566 23.8505 220.431 23.8006 219.491 23.7665C218.551 23.7343 217.919 23.717 217.595 23.717C216.168 23.717 215.13 23.5522 214.482 23.2208C213.833 22.8907 213.704 22.2284 214.094 21.2364C214.482 20.2439 215.195 19.2683 216.233 18.309C217.27 17.3501 218.34 16.408 219.443 15.4806C220.545 14.5553 221.534 13.6941 222.41 12.9C223.285 12.1064 223.723 11.3468 223.723 10.6182C223.723 9.89087 223.657 9.37743 223.528 9.08005C223.398 8.7818 223.236 8.55111 223.042 8.38541C222.847 8.22058 222.619 8.0876 222.361 7.98818C222.231 7.93869 222.101 7.86855 221.971 7.77731C221.717 7.59956 221.387 7.57159 221.133 7.74804C219.604 8.8059 218.117 10.0264 216.671 11.4122C215.081 12.9349 213.461 14.4881 211.807 16.0758C210.154 17.6638 208.484 19.1865 206.798 20.6403C205.111 22.0967 203.328 23.3203 201.449 24.3123C200.476 24.8429 199.341 25.1726 198.044 25.3051C196.746 25.4381 195.466 25.5203 194.202 25.553C192.938 25.587 191.722 25.637 190.555 25.7019C190.425 25.7088 190.299 25.7183 190.176 25.7282C190.176 25.7278 190.176 25.7278 190.175 25.7278L175.284 26.4955C174.83 26.4955 173.777 26.5295 172.123 26.595C170.469 26.6617 168.49 26.7607 166.19 26.8928C163.887 27.0258 161.424 27.1747 158.798 27.3391C156.172 27.5048 153.691 27.686 151.357 27.8848C150.058 28.0182 148.763 28.1004 147.466 28.1331C146.168 28.1671 145.001 28.217 143.964 28.2825C142.926 28.3483 142.1 28.48 141.484 28.6788C140.867 28.8772 140.624 29.1746 140.755 29.5719C140.624 29.9032 140.77 30.1671 141.193 30.3659C141.614 30.5639 142.181 30.7472 142.894 30.9116C143.607 31.0773 144.402 31.209 145.277 31.3084C146.152 31.4074 147.011 31.4913 147.854 31.5563C147.855 31.5563 147.856 31.5563 147.856 31.5563C148.569 31.425 149.541 31.2929 150.773 31.1591C152.004 31.0278 153.205 30.8961 154.372 30.7627C155.734 30.631 157.159 30.4989 158.651 30.3659L163.859 29.6183C164.411 29.5396 164.965 29.4815 165.521 29.4539C166.274 29.4169 167.356 29.324 168.767 29.1746C170.648 28.9767 172.707 28.7623 174.944 28.5299C177.181 28.2988 179.401 28.0832 181.606 27.8848C183.81 27.686 189.517 27.262 190.944 27.262C190.944 27.2616 190.943 27.2612 190.943 27.2612C191.371 27.2797 191.823 27.2896 192.305 27.2896C193.213 27.2896 194.072 27.3068 194.884 27.3391C195.693 27.3731 196.357 27.4725 196.877 27.6365C197.401 27.806 197.536 28.4998 197.117 28.8617C192.985 32.4325 188.852 35.8932 184.719 39.2471C180.439 42.7206 176.16 46.0444 171.88 49.2206C169.48 50.9412 167.146 52.6111 164.877 54.2318C162.606 55.8539 160.337 57.3916 158.068 58.8463C156.641 59.7733 155.068 60.6823 153.351 61.5749C151.632 62.4683 149.881 63.3287 148.098 64.155L138.129 68.571C138.129 68.571 138.128 68.571 138.128 68.571C120.466 74.8028 124.398 69.1525 124.398 69.1525L139.631 48.2776C141.09 46.1283 141.819 44.5902 141.819 43.6632C141.819 43.2659 141.688 42.8691 141.43 42.4723C141.17 42.0755 140.862 41.6955 140.506 41.3314C140.149 40.9686 139.841 40.5868 139.582 40.19C139.322 39.7928 139.193 39.396 139.193 38.9988C139.193 38.1406 139.419 37.4778 139.874 37.0143C140.327 36.5521 140.684 36.0223 140.944 35.4267C141.073 35.0961 140.976 34.5836 140.652 33.8889C140.407 33.3647 140.214 32.8939 139.918 32.6275C136.993 30.0005 127.912 39.5763 127.912 39.5763C99.7094 65.2158 94.8338 67.2812 94.8338 67.2812C87.7985 71.4188 83.8898 72.4233 81.8264 72.5197C80.4144 72.586 79.089 71.674 78.7418 70.2783C78.7401 70.2714 78.7384 70.2646 78.7367 70.2585C78.5745 69.5975 78.591 68.7699 78.7853 67.777C78.98 66.785 79.3352 65.5786 79.8552 64.155C80.3734 62.733 81.0864 60.9638 81.995 58.8463C82.5132 57.7889 83.097 56.6802 83.7458 55.5217C84.3933 54.3653 85.0421 53.2394 85.6917 52.148C86.3388 51.0561 87.0045 50.0486 87.6853 49.1212C87.6921 49.1117 87.6989 49.1026 87.7056 49.0932C88.7497 47.6768 89.9852 46.4193 91.3571 45.3304L121.534 21.3849C122.581 20.4312 123.517 19.3643 124.344 18.1837C124.551 17.8872 124.511 17.4771 124.261 17.2171C123.741 16.6761 123.302 16.1967 122.944 15.7779C122.489 15.2499 121.906 15.1827 121.194 15.58C120.155 16.1756 118.047 17.5322 114.871 19.6483C111.693 21.7666 107.835 24.3463 103.297 27.3886C101.741 28.4477 100.233 29.5392 98.7738 30.6633C97.3144 31.7891 95.6443 32.946 93.7643 34.1364L85.9346 39.0487L77.7154 43.961C74.0191 46.2772 70.3718 48.6254 66.7735 51.0066C63.1739 53.3883 59.5588 55.705 55.9279 57.9529C54.5662 58.8136 53.204 59.6399 51.8426 60.434C50.4804 61.228 49.1191 62.0216 47.7578 62.8152L40.6086 66.5862C39.7967 66.9834 39.0039 67.3802 38.2251 67.777C36.3437 68.704 34.5445 69.514 32.8273 70.2082C31.1085 70.9032 29.4062 71.5484 27.721 72.1436C24.9319 73.0706 22.3816 73.7755 20.0851 74.3269C12.4732 76.1534 10.4558 75.1205 10.4558 75.1205C9.77508 74.8566 9.19147 74.3114 8.70526 73.4829C8.21884 72.657 7.97563 71.2845 7.97563 69.3646C7.97563 67.8441 8.25069 66.2733 8.80258 64.6512C8.80258 64.6512 10.8246 58.6023 14.5411 53.8841C14.5411 53.8841 21.8018 45.2181 33.8483 35.7245C36.0439 33.9939 38.3061 32.3176 40.6086 30.6633C42.9096 29.0107 45.2285 27.3886 47.5626 25.8009C51.5174 23.2208 55.4418 20.7737 59.3319 18.457C63.2225 16.1425 66.9344 14.0758 70.4694 12.2553C74.0026 10.437 77.244 8.94835 80.1956 7.79021C80.1956 7.79021 92.3354 1.97974 104.367 2.1833C104.367 2.1833 114.453 2.57193 112.147 9.97307C111.751 11.2448 111.061 12.3388 110.446 13.3967C109.828 14.4558 109.407 15.3162 109.181 15.9768C108.971 16.5871 109.355 16.8875 110.331 16.8788C110.499 16.8776 110.663 16.8113 110.793 16.7015C112.387 15.3527 113.698 13.821 114.726 12.1064C115.795 10.3204 116.33 8.63374 116.33 7.04567C116.33 5.591 115.956 4.40059 115.212 3.47314C114.465 2.54783 113.428 1.83556 112.099 1.33934C110.769 0.843552 109.229 0.495811 107.479 0.297409C105.728 0.0990067 103.846 2.28882e-05 101.837 2.28882e-05C98.7252 2.28882e-05 95.3689 0.232849 91.7706 0.694641C88.1715 1.15815 84.2324 1.98447 79.9528 3.17532C79.3035 3.3083 78.6548 3.47313 78.0068 3.67153C77.3661 3.86735 76.6941 4.06361 75.9904 4.25986C75.9743 4.26502 75.9583 4.26975 75.9422 4.27492C75.9422 4.27492 72.055 5.65771 72.0216 5.66675L67.7239 7.23159C67.7057 7.23934 60.8943 10.1762 57.6301 12.0569C54.3546 13.9424 51.0642 15.7779 47.7578 17.5644C45.8199 18.5526 43.9305 19.7055 42.0895 21.0216C42.0744 21.0315 42.0591 21.0414 42.0441 21.0513C42.0441 21.0513 14.8006 38.8649 1.85585 61.1135C1.8509 61.1238 0.808634 63.8473 0.486236 65.2963C0.161034 66.7523 0 67.9758 0 68.9683C0 69.6969 0.194363 70.722 0.583254 72.0441C0.972308 73.368 1.87961 74.7581 3.30681 76.2119C4.86287 77.8 6.46793 78.7752 8.12148 79.1393C9.77508 79.5025 11.4441 79.685 13.1305 79.685C13.1305 79.685 20.084 81.4211 58.2139 60.5829L69.1076 54.827C70.3718 54.1324 71.3767 53.554 72.1226 53.0905C72.8677 52.6283 73.4189 52.2965 73.7758 52.0981C73.9448 52.0042 74.0879 51.925 74.2058 51.8609C74.4672 51.7185 74.7714 51.6517 75.0565 51.7352C75.3585 51.8235 75.5321 52.0434 75.576 52.3954C75.6394 52.9265 75.527 53.6362 75.2351 54.5292C74.9462 55.4132 74.515 56.4276 73.9401 57.5703C73.93 57.5931 73.9194 57.6172 73.9093 57.6404L70.7287 66.1467C70.7198 66.1756 70.7106 66.2057 70.7017 66.2341C70.3824 67.539 70.1762 68.6481 70.0799 69.5635C69.9824 70.4909 69.998 71.3495 70.1289 72.1436C70.1289 72.1436 69.9845 76.1766 75.4784 78.2958C75.4784 78.2958 78.5884 79.07 83.0167 76.956C83.0167 76.956 94.3603 73.6228 132.336 41.0831C133.182 40.3575 134.004 40.1573 134.524 40.0906C134.524 40.0906 135.508 39.9434 136.341 40.9978C136.631 41.3658 136.655 41.8848 136.436 42.301C135.579 43.93 133.194 48.3267 131.314 50.5104C128.98 53.2239 126.646 55.8191 124.311 58.3002C121.977 60.7808 119.918 63.2125 118.135 65.5946C116.528 67.7387 115.54 69.9375 115.171 72.1888C115.171 72.1888 114.382 76.9719 122.075 76.4107C122.85 76.3543 123.84 76.3113 125.041 76.1133C126.24 75.9145 127.521 75.6167 128.883 75.2199C130.244 74.8226 131.638 74.3608 133.066 73.8302L143.915 69.2157C145.114 68.7195 146.849 67.811 149.119 66.4872C150.35 65.7598 151.534 65.0656 152.67 64.4033C153.65 63.8322 154.571 63.2848 155.43 62.7623C155.72 62.5858 156.111 62.6082 156.329 62.8712C156.476 63.0485 156.518 63.2809 156.463 63.5593C156.366 64.0564 156.089 64.6017 155.636 65.1969C155.182 65.7925 154.63 66.4222 153.983 67.0824C153.334 67.7447 152.719 68.3731 152.135 68.9683C150.836 70.225 149.411 71.4825 147.855 72.7388C146.299 73.9963 144.823 75.2694 143.429 76.5592C142.034 77.8495 140.867 79.1225 139.928 80.3796C138.987 81.6359 138.518 82.8612 138.518 84.0511C138.518 84.7793 138.679 85.5897 139.004 86.4832C139.327 87.3758 139.782 88.2025 140.366 88.9639C140.95 89.7235 141.662 90.3531 142.506 90.8489C142.506 90.8489 149.123 94.0001 164.39 83.6053L183.159 71.3904Z" fill="white"/>
</g>
<defs>
<clipPath id="clip0_122_534">
<rect width="466" height="146" fill="white"/>
</clipPath>
</defs>
</svg>
